<?xml version="1.0" encoding="UTF-8"?>
<svg width="347px" height="276px" viewBox="0 0 347 276" version="1.1" xmlns="http://www.w3.org/2000/svg" xmlns:xlink="http://www.w3.org/1999/xlink">
    <!-- Generator: Sketch 53.1 (72631) - https://sketchapp.com -->
    <title>undraw_book_lover_mkck</title>
    <desc>Created with Sketch.</desc>
    <defs>
        <linearGradient x1="49.9983096%" y1="100.00595%" x2="49.9983096%" y2="-0.00150157813%" id="linearGradient-1">
            <stop stop-color="#808080" stop-opacity="0.25" offset="0%"></stop>
            <stop stop-color="#808080" stop-opacity="0.12" offset="54%"></stop>
            <stop stop-color="#808080" stop-opacity="0.1" offset="100%"></stop>
        </linearGradient>
    </defs>
    <g id="Page-2" stroke="none" stroke-width="1" fill="none" fill-rule="evenodd">
        <g id="Landing-Page-(Desktop)" transform="translate(-546.000000, -286.000000)">
            <g id="undraw_book_lover_mkck" transform="translate(546.000000, 286.000000)">
                <path d="M203.287619,45.7538976 C181.298351,44.9913772 160.352147,37.9117991 140.353873,30.1645921 C120.355599,22.417385 100.54759,13.8331 79.0849504,9.72904587 C65.2805012,7.08903087 49.4918536,6.71624313 38.3715086,14.0974404 C27.6656707,21.2142973 24.2069138,33.4654581 22.3484265,44.8456511 C20.9486153,53.4062133 20.1263961,62.4141207 23.9622866,70.4290571 C26.6226075,75.9937614 31.3486692,80.6705531 34.6137629,86.0183627 C45.9855303,104.562858 37.9502061,127.431692 25.6271106,145.539009 C19.8511905,154.035181 13.1409303,162.145008 8.68327899,171.180028 C4.22562768,180.215047 2.15988683,190.581935 6.06033173,199.806737 C9.93019823,208.956982 19.1478873,215.816276 29.1300363,220.645572 C49.4103112,230.456668 73.2988374,233.262743 96.6097716,234.852174 C148.195534,238.373324 200.053104,236.848283 251.77477,235.323242 C270.916849,234.757283 290.14047,234.184545 308.96997,231.232744 C319.427783,229.592478 330.221958,226.993131 337.815595,220.709963 C347.451188,212.735694 349.839701,199.230611 343.384261,189.233121 C332.549314,172.461062 302.61306,168.296006 295.029617,150.293747 C290.864159,140.38776 295.145135,129.353243 301.199658,120.162331 C314.192081,100.452026 335.9673,83.158064 337.115689,60.6281285 C337.903932,45.1506593 327.432529,29.6562451 311.246362,22.3326605 C294.282145,14.6295102 270.750367,15.6055363 258.240403,28.3108203 C245.349908,41.402448 222.701506,46.4249156 203.287619,45.7538976 Z" id="Path" fill="#1ECCC1" fill-rule="nonzero" opacity="0.1"></path>
                <polygon id="Path" fill="#1ECCC1" fill-rule="nonzero" points="147.514765 233 31.5250928 232.434615 20 205.428151 60.752945 202.472574 53.6501533 172.862629 134.254639 162.425005 57.0693884 135.618289 63.8875262 134 188 154.22861 181.164919 200.437863 171.395191 225.832809"></polygon>
                <path d="M33,223.090999 C33,223.090999 39.875,222.15431 44,226.291354 C44,226.291354 40.975,228.320848 34.4666667,225.51078 L33,223.090999 Z" id="Path" fill="#1ECCC1" fill-rule="nonzero"></path>
                <path d="M32.4760462,222 C32.4760462,222 28.630287,227.204878 30.5244669,233 C30.5244669,233 33.6584736,231.62066 34,224.594548 L32.4760462,222 Z" id="Path" fill="#1ECCC1" fill-rule="nonzero"></path>
                <path d="M29,212.278901 C29,212.278901 31.6,205.693883 42,214.911198 C42,214.911198 40.6133333,219.338245 36.02,218.979295 C31.4266667,218.620345 30.2133333,215.748748 29,212.278901 Z" id="Path" fill="#1ECCC1" fill-rule="nonzero"></path>
                <path d="M28.2686686,215.004797 C28.2686686,215.004797 21.6424712,214.42705 21,225.953095 C21,225.953095 25.2007734,226.614615 28.1850332,222.969034 C31.1692931,219.323453 29.9451763,217.27823 28.2686686,215.004797 Z" id="Path" fill="#1ECCC1" fill-rule="nonzero"></path>
                <path d="M26,202.206806 C26,202.206806 29.0246914,192.637522 40,199.444539 C40,199.444539 37.4938272,208.224603 27.1234568,205.462336 L26,202.206806 Z" id="Path" fill="#1ECCC1" fill-rule="nonzero"></path>
                <path d="M21,188.31199 C21,188.31199 27.852459,179.075713 40,187.638792 C40,187.638792 35.7431694,196.309583 22.0382514,191.597197 L21,188.31199 Z" id="Path" fill="#1ECCC1" fill-rule="nonzero"></path>
                <path d="M20,175.334902 C20,175.334902 27.5859259,165.581372 39,175.334902 C39,175.334902 31.8081481,183.892938 20,177.826482 L20,175.334902 Z" id="Path" fill="#1ECCC1" fill-rule="nonzero"></path>
                <path d="M18,161.600516 C18,161.600516 25.8412698,151.613163 37,161.069274 C37,161.069274 28.1534392,169.887894 18,163.937982 L18,161.600516 Z" id="Path" fill="#1ECCC1" fill-rule="nonzero"></path>
                <path d="M18,152.045402 C18,152.045402 26.390937,141.209016 37,148.552682 C37,148.552682 28.0107527,157.8666 18,154.10521 L18,152.045402 Z" id="Path" fill="#1ECCC1" fill-rule="nonzero"></path>
                <path d="M21,138.629348 C21,138.629348 29.7925532,127.856965 40,136.115792 C40,136.115792 29.5904255,145.451858 21,140.604285 L21,138.629348 Z" id="Path" fill="#1ECCC1" fill-rule="nonzero"></path>
                <path d="M23.4332248,126.062211 C23.4332248,126.062211 33.3492581,115.906577 42,119.952108 C42,119.952108 31.6679334,130.738047 23,128.757088 L23.4332248,126.062211 Z" id="Path" fill="#1ECCC1" fill-rule="nonzero"></path>
                <path d="M26.8152727,113.765506 C26.8152727,113.765506 38.312,101.827627 45,105.81515 C45,105.81515 36.5294545,115.074105 26,116 L26.8152727,113.765506 Z" id="Path" fill="#1ECCC1" fill-rule="nonzero"></path>
                <path d="M31.3676362,102.887874 C31.3676362,102.887874 41.556701,92.9202323 49,95.394783 C49,95.394783 40.2835052,105.73487 30,106 L31.3676362,102.887874 Z" id="Path" fill="#1ECCC1" fill-rule="nonzero"></path>
                <path d="M35.5,89.8972297 C35.5,89.8972297 47,80.5495679 52,82.1940639 C52,82.1940639 43.7,92.5803548 35,91.9744878 L35.5,89.8972297 Z" id="Path" fill="#1ECCC1" fill-rule="nonzero"></path>
                <path d="M42,76.9134626 C42,76.9134626 51.0567095,66.2168423 56,67.0458082 C56,67.0458082 50.507818,76.5818763 42,78 L42,76.9134626 Z" id="Path" fill="#1ECCC1" fill-rule="nonzero"></path>
                <path d="M44.3388387,63.2899879 C44.3388387,63.2899879 52.5581935,54.9820271 57,55 C57,55 50.5117419,66.101313 44,65.9993012 L44.3388387,63.2899879 Z" id="Path" fill="#1ECCC1" fill-rule="nonzero"></path>
                <path d="M48.0150935,52.4009944 L55.9975731,33 C55.9975731,33 56.3955167,50.5375841 47,56 L48.0150935,52.4009944 Z" id="Path" fill="#1ECCC1" fill-rule="nonzero"></path>
                <path d="M52.0555668,31.4590432 C52.0555668,31.4590432 53.4169545,14.3891236 52.5417767,13 C52.5417767,13 58.4179702,27.1924492 52,39 L52.0555668,31.4590432 Z" id="Path" fill="#1ECCC1" fill-rule="nonzero"></path>
                <path d="M23.0660203,201.956194 C23.0660203,201.956194 15.1352724,197.230057 10,208.792158 C10,208.792158 17.0581717,213.29768 24,204.90498 L23.0660203,201.956194 Z" id="Path" fill="#1ECCC1" fill-rule="nonzero"></path>
                <path d="M20.0181282,186.745981 C20.0181282,186.745981 9.23187184,182.396025 4,194.704532 C4,194.704532 12.3315767,199.773672 21,189.857166 L20.0181282,186.745981 Z" id="Path" fill="#1ECCC1" fill-rule="nonzero"></path>
                <path d="M19,175.334902 C19,175.334902 11.4140741,165.581372 0,175.334902 C0,175.334902 7.19185185,183.892938 19,177.826482 L19,175.334902 Z" id="Path" fill="#1ECCC1" fill-rule="nonzero"></path>
                <path d="M19,161.600516 C19,161.600516 11.1587302,151.613163 0,161.069274 C0,161.069274 8.84656085,169.887894 19,163.937982 L19,161.600516 Z" id="Path" fill="#1ECCC1" fill-rule="nonzero"></path>
                <path d="M19,150.870695 C19,150.870695 13.6433566,139.2514 2,144.248156 C2,144.248156 8.29370629,154.550904 18.5244755,152.79959 L19,150.870695 Z" id="Path" fill="#1ECCC1" fill-rule="nonzero"></path>
                <path d="M21,137.760696 C21,137.760696 15.7161224,125.985049 4,131.444362 C4,131.444362 11.1746939,142.237943 20.4795918,139.578434 L21,137.760696 Z" id="Path" fill="#1ECCC1" fill-rule="nonzero"></path>
                <path d="M24,127.302884 C24,127.302884 22.0588235,112.339721 13,111 C13,111 14.9217647,126.779721 22.7802941,130 L24,127.302884 Z" id="Path" fill="#1ECCC1" fill-rule="nonzero"></path>
                <path d="M27,113.593333 C27,113.593333 26.1737936,96.5933333 18,96 C18,96 18.2754021,108.903333 26.0784621,116 L27,113.593333 Z" id="Path" fill="#1ECCC1" fill-rule="nonzero"></path>
                <path d="M32,100.410345 C32,100.410345 29.8586207,85.7862069 23,84 C23,84 23.8503448,98.162069 31.3203448,104 L32,100.410345 Z" id="Path" fill="#1ECCC1" fill-rule="nonzero"></path>
                <path d="M39,90.9968034 C39,90.9968034 38.8971402,75.3050968 32.8597197,73 C32.8597197,73 29.1165189,87.207068 37.2513841,93 L39,90.9968034 Z" id="Path" fill="#1ECCC1" fill-rule="nonzero"></path>
                <path d="M41,77.9682945 C41,77.9682945 40.1943967,62.2192055 34.23549,60 C34.23549,60 32.1980383,72.4635569 40.1091477,79 L41,77.9682945 Z" id="Path" fill="#1ECCC1" fill-rule="nonzero"></path>
                <path d="M46,64.3388554 C46,64.3388554 45.9759756,51.1046687 42.9789351,48 C42.9789351,48 39.9999128,62.4967997 44.4354127,67 L46,64.3388554 Z" id="Path" fill="#1ECCC1" fill-rule="nonzero"></path>
                <path d="M46.8674359,52.3290234 L44.0691803,32 C44.0691803,32 40.2680484,48.6580468 47,56 L46.8674359,52.3290234 Z" id="Path" fill="#1ECCC1" fill-rule="nonzero"></path>
                <path d="M47.8980575,31.8615385 C47.8980575,31.8615385 39.8375354,18.4861538 40.0024979,17 C40.0024979,17 40.8596562,31.0183077 51,38 L47.8980575,31.8615385 Z" id="Path" fill="#1ECCC1" fill-rule="nonzero"></path>
                <path d="M49.4031008,28 C49.4031008,28 42.2403101,8.57268722 39,7 C39,7 49.2325581,12.6431718 50,27.4449339 L49.4031008,28 Z" id="Path" fill="#1ECCC1" fill-rule="nonzero"></path>
                <path d="M43.6814167,67 L43,66.8339827 C51.4013176,44.9027613 53.4963565,30.9200407 48.9042005,27.4133491 L49.3909267,27 C54.2624212,30.6998137 52.2858896,44.5300695 43.6814167,67 Z" id="Path" fill="#444053" fill-rule="nonzero"></path>
                <path d="M24.8136752,116 L24,115.711754 C24.7213675,113.700813 25.4974359,111.659351 26.3111111,109.64841 C33.3948718,92.136605 39.425641,75.8456075 43.2923077,63.3391132 L44,63 C40.1264957,75.5302323 34.2017094,92.445198 27.1111111,109.980741 C26.3008547,111.95438 25.5282051,113.985668 24.8136752,116 Z" id="Path" fill="#444053" fill-rule="nonzero"></path>
                <path d="M45.141604,237 C45.0326014,236.881044 34.0744275,224.56745 26.4340222,203.546311 C21.9571988,191.239297 19.4657194,178.301514 19.0524982,165.215446 C18.5279229,148.857364 21.9683194,130.592595 27.8612758,114 L28.5016665,114.74772 C15.2714684,151.987593 20.5274405,183.898259 27.5002045,203.114673 C35.0588578,223.945482 45.8944037,236.123128 46,236.245482 L45.141604,237 Z" id="Path" fill="#444053" fill-rule="nonzero"></path>
                <path d="M214,213 C214,213 206.265732,222.306054 212.406748,236.374439 L150.655421,262.775785 L144.72934,264 L142,252.2287 L143.825246,237.373318 L143.825246,229.254484 L214,213 Z" id="Path" fill="#D5D6DB" fill-rule="nonzero"></path>
                <polygon id="Path" fill="#1ECCC1" fill-rule="nonzero" points="20 207.449689 105.159682 192 218 209.888758 147.912888 235"></polygon>
                <polygon id="Path" fill="#1ECCC1" fill-rule="nonzero" points="20 207.449689 105.159682 192 218 209.888758 147.912888 235"></polygon>
                <path d="M20.1787918,206 C20.1787918,206 12.2815375,220.984869 21.3820866,234.825366 L146.598902,262 C146.598902,262 138.826359,250.063416 147,233.495328 L20.1787918,206 Z" id="Path" fill="#1ECCC1" fill-rule="nonzero"></path>
                <path d="M20.1787918,206 C20.1787918,206 12.2815375,220.984869 21.3820866,234.825366 L146.598902,262 C146.598902,262 138.826359,250.063416 147,233.495328 L20.1787918,206 Z" id="Path" fill="#000000" fill-rule="nonzero" opacity="0.1"></path>
                <path d="M24,213 C24,213 21.75,224.534953 24,232" id="Path" fill="#000000" fill-rule="nonzero" opacity="0.1"></path>
                <path d="M148.260288,263.108247 L218.748535,233 C218.748535,233 222.690983,233.850515 220.141987,236.742268 C217.59299,239.634021 149.619753,266 149.619753,266 L22,235.721649 L148.260288,263.108247 Z" id="Path" fill="#1ECCC1" fill-rule="nonzero"></path>
                <path d="M148.260288,263.108247 L218.748535,233 C218.748535,233 222.690983,233.850515 220.141987,236.742268 C217.59299,239.634021 149.619753,266 149.619753,266 L22,235.721649 L148.260288,263.108247 Z" id="Path" fill="#000000" fill-rule="nonzero" opacity="0.1"></path>
                <path d="M141,236 C141,236 134.25,244 141,256" id="Path" fill="#000000" fill-rule="nonzero" opacity="0.1"></path>
                <polygon id="Rectangle" fill="#000000" fill-rule="nonzero" opacity="0.1" transform="translate(159.206497, 242.253769) rotate(-18.450000) translate(-159.206497, -242.253769) " points="143.168105 242.082354 175.24485 242.086104 175.24489 242.425184 143.168145 242.421434"></polygon>
                <polygon id="Rectangle" fill="#000000" fill-rule="nonzero" opacity="0.1" transform="translate(162.255694, 243.111088) rotate(-20.820000) translate(-162.255694, -243.111088) " points="142.713716 242.939018 181.797628 242.944074 181.797672 243.283158 142.713759 243.278101"></polygon>
                <polygon id="Rectangle" fill="#000000" fill-rule="nonzero" opacity="0.1" transform="translate(165.160278, 244.694702) rotate(-22.260000) translate(-165.160278, -244.694702) " points="142.509849 244.522067 187.810661 244.528252 187.810707 244.867337 142.509896 244.861152"></polygon>
                <polygon id="Rectangle" fill="#000000" fill-rule="nonzero" opacity="0.1" transform="translate(168.453907, 245.375800) rotate(-24.310000) translate(-168.453907, -245.375800) " points="142.381419 245.202446 194.526345 245.210065 194.526394 245.549154 142.381469 245.541535"></polygon>
                <polygon id="Rectangle" fill="#000000" fill-rule="nonzero" opacity="0.1" transform="translate(171.196931, 246.071128) rotate(-23.610000) translate(-171.196931, -246.071128) " points="142.68058 245.897509 199.713234 245.90566 199.713283 246.244748 142.680629 246.236597"></polygon>
                <polygon id="Rectangle" fill="#000000" fill-rule="nonzero" opacity="0.1" transform="translate(177.182866, 246.281520) rotate(-23.360000) translate(-177.182866, -246.281520) " points="143.058176 246.107138 211.307507 246.116814 211.307555 246.455901 143.058224 246.446225"></polygon>
                <polygon id="Path" fill="#FFFFFF" fill-rule="nonzero" opacity="0.3" points="52 208.701493 111.656804 196 148 203.037313 99.1153167 219"></polygon>
                <path d="M217.123811,209 C217.123811,209 220.262489,210.285464 218.420671,212.271454 C216.578854,214.257443 146,235 146,235 L217.123811,209 Z" id="Path" fill="#1ECCC1" fill-rule="nonzero"></path>
                <path d="M248,182 C248,182 240.268777,191.301464 246.410084,205.371357 L184.655831,231.769221 L178.72947,233 L176,221.230252 L177.852628,206.380193 L177.852628,198.252341 L248,182 Z" id="Path" fill="#D5D6DB" fill-rule="nonzero"></path>
                <polygon id="Path" fill="#3A3768" fill-rule="nonzero" points="54 174.446306 139.156283 159 252 176.888758 181.912888 202"></polygon>
                <path d="M53.1808358,174 C53.1808358,174 45.2809681,188.984869 54.380645,202.825366 L179.585459,230 C179.585459,230 171.817031,218.053288 180,201.491952 L53.1808358,174 Z" id="Path" fill="#3A3768" fill-rule="nonzero"></path>
                <path d="M53.1808358,174 C53.1808358,174 45.2809681,188.984869 54.380645,202.825366 L179.585459,230 C179.585459,230 171.817031,218.053288 180,201.491952 L140.406295,192.907469 L53.1808358,174 Z" id="Path" fill="#000000" fill-rule="nonzero" opacity="0.1"></path>
                <path d="M57,179 C57,179 54.75,190.531402 57,198" id="Path" fill="#000000" fill-rule="nonzero" opacity="0.1"></path>
                <path d="M181.259965,230.108247 L251.75143,200 C251.75143,200 255.690469,200.850515 253.141479,203.742268 C250.592489,206.634021 182.619426,233 182.619426,233 L55,202.721649 L181.259965,230.108247 Z" id="Path" fill="#3A3768" fill-rule="nonzero"></path>
                <path d="M181.259965,230.108247 L251.75143,200 C251.75143,200 255.690469,200.850515 253.141479,203.742268 C250.592489,206.634021 182.619426,233 182.619426,233 L55,202.721649 L181.259965,230.108247 Z" id="Path" fill="#000000" fill-rule="nonzero" opacity="0.1"></path>
                <path d="M176,205 C176,205 169.25,213 176,225" id="Path" fill="#000000" fill-rule="nonzero" opacity="0.1"></path>
                <polygon id="Rectangle" fill="#000000" fill-rule="nonzero" opacity="0.1" transform="translate(192.888142, 209.645975) rotate(-18.450000) translate(-192.888142, -209.645975) " points="176.84975 209.47456 208.926494 209.47831 208.926534 209.81739 176.849789 209.813639"></polygon>
                <polygon id="Rectangle" fill="#000000" fill-rule="nonzero" opacity="0.1" transform="translate(195.941594, 210.501678) rotate(-20.820000) translate(-195.941594, -210.501678) " points="176.399616 210.329608 215.483528 210.334665 215.483572 210.673748 176.399659 210.668691"></polygon>
                <polygon id="Rectangle" fill="#000000" fill-rule="nonzero" opacity="0.1" transform="translate(198.841207, 212.080597) rotate(-22.260000) translate(-198.841207, -212.080597) " points="176.190778 211.907962 221.491589 211.914147 221.491636 212.253233 176.190824 212.247047"></polygon>
                <polygon id="Rectangle" fill="#000000" fill-rule="nonzero" opacity="0.1" transform="translate(202.138764, 212.762356) rotate(-24.310000) translate(-202.138764, -212.762356) " points="176.066277 212.589002 228.211203 212.596622 228.211252 212.93571 176.066326 212.928091"></polygon>
                <polygon id="Rectangle" fill="#000000" fill-rule="nonzero" opacity="0.1" transform="translate(204.876935, 213.453371) rotate(-23.610000) translate(-204.876935, -213.453371) " points="176.360584 213.279752 233.393238 213.287903 233.393286 213.626991 176.360632 213.618839"></polygon>
                <polygon id="Rectangle" fill="#000000" fill-rule="nonzero" opacity="0.1" transform="translate(210.865449, 213.663806) rotate(-23.360000) translate(-210.865449, -213.663806) " points="176.74076 213.489425 244.990091 213.4991 244.990139 213.838187 176.740808 213.828512"></polygon>
                <polygon id="Path" fill="#FFFFFF" fill-rule="nonzero" opacity="0.45" points="85 174.701493 144.656804 162 181 169.037313 132.115317 185"></polygon>
                <path d="M252.124912,176 C252.124912,176 255.260645,177.285637 253.421981,179.268391 C251.583317,181.251145 181,202 181,202 L252.124912,176 Z" id="Path" fill="#3A3768" fill-rule="nonzero"></path>
                <path d="M253,143 C253,143 245.264265,159.701853 251.406445,173.767456 L189.643412,192.765939 L183.729858,194 L181,182.231028 L182.825592,167.378585 L182.825592,159.251269 L253,143 Z" id="Path" fill="#D5D6DB" fill-rule="nonzero"></path>
                <polygon id="Path" fill="#1ECCC1" fill-rule="nonzero" points="56 135.449689 141.15822 120 254 137.888758 183.910692 163"></polygon>
                <path d="M58.1880422,137 C58.1880422,137 50.2776724,151.984869 59.3777996,165.825366 L184.588809,193 C184.588809,193 176.816626,181.053288 185,164.495328 L58.1880422,137 Z" id="Path" fill="#1ECCC1" fill-rule="nonzero"></path>
                <path d="M58.1880422,137 C58.1880422,137 50.2776724,151.984869 59.3777996,165.825366 L184.588809,193 C184.588809,193 176.816626,181.053288 185,164.495328 L58.1880422,137 Z" id="Path" fill="#000000" fill-rule="nonzero" opacity="0.1"></path>
                <path d="M61,143 C61,143 58.75,154.534953 61,162" id="Path" fill="#000000" fill-rule="nonzero" opacity="0.1"></path>
                <path d="M182.260288,193.134831 L252.748535,170.719101 C252.748535,170.719101 256.690983,171.561798 254.141987,174.426966 C251.59299,177.292135 183.619753,196 183.619753,196 L56,166 L182.260288,193.134831 Z" id="Path" fill="#1ECCC1" fill-rule="nonzero"></path>
                <path d="M182.260288,193.134831 L252.748535,170.719101 C252.748535,170.719101 256.690983,171.561798 254.141987,174.426966 C251.59299,177.292135 183.619753,196 183.619753,196 L56,166 L182.260288,193.134831 Z" id="Path" fill="#000000" fill-rule="nonzero" opacity="0.1"></path>
                <path d="M179,167 C179,167 172.25,175 179,187" id="Path" fill="#000000" fill-rule="nonzero" opacity="0.1"></path>
                <polygon id="Rectangle" fill="#000000" fill-rule="nonzero" opacity="0.1" transform="translate(196.091133, 172.337820) rotate(-18.450000) translate(-196.091133, -172.337820) " points="180.052741 172.166405 212.129486 172.170155 212.129526 172.509235 180.052781 172.505484"></polygon>
                <polygon id="Rectangle" fill="#000000" fill-rule="nonzero" opacity="0.1" transform="translate(199.142242, 173.195239) rotate(-20.820000) translate(-199.142242, -173.195239) " points="179.600263 173.02317 218.684176 173.028226 218.68422 173.367309 179.600307 173.362253"></polygon>
                <polygon id="Rectangle" fill="#000000" fill-rule="nonzero" opacity="0.1" transform="translate(202.038743, 174.775797) rotate(-22.260000) translate(-202.038743, -174.775797) " points="179.388314 174.603162 224.689126 174.609347 224.689172 174.948432 179.388361 174.942247"></polygon>
                <polygon id="Rectangle" fill="#000000" fill-rule="nonzero" opacity="0.1" transform="translate(205.341021, 175.454588) rotate(-24.310000) translate(-205.341021, -175.454588) " points="179.268534 175.281234 231.413459 175.288853 231.413509 175.627942 179.268583 175.620323"></polygon>
                <polygon id="Rectangle" fill="#000000" fill-rule="nonzero" opacity="0.1" transform="translate(208.080939, 176.148837) rotate(-23.610000) translate(-208.080939, -176.148837) " points="179.564587 175.975218 236.597241 175.983369 236.59729 176.322457 179.564636 176.314305"></polygon>
                <polygon id="Rectangle" fill="#000000" fill-rule="nonzero" opacity="0.1" transform="translate(214.068334, 176.361467) rotate(-23.360000) translate(-214.068334, -176.361467) " points="179.943645 176.187085 248.192975 176.196761 248.193023 176.535848 179.943693 176.526172"></polygon>
                <polygon id="Path" fill="#FFFFFF" fill-rule="nonzero" opacity="0.3" points="90 138.701493 149.656804 126 186 133.037313 137.115317 149"></polygon>
                <path d="M256.123545,137 C256.123545,137 259.262668,138.285464 257.420589,140.271454 C255.578511,142.257443 185,163 185,163 L256.123545,137 Z" id="Path" fill="#1ECCC1" fill-rule="nonzero"></path>
                <path d="M105.75847,37.0157408 C105.75847,37.0157408 93.7062389,36.2833913 95.1144469,44.8093474 C95.1144469,44.8093474 94.832171,46.3156209 96.1864611,47 C96.1864611,47 96.2086626,46.3603934 97.4234006,46.5810577 C97.8568785,46.6561413 98.2978221,46.6776202 98.7364594,46.6450183 C99.3277444,46.6042007 99.889863,46.3707479 100.338137,45.9798275 L100.338137,45.9798275 C100.338137,45.9798275 103.72862,44.5662968 105.048022,38.9761351 C105.048022,38.9761351 106.024887,37.7576845 105.999514,37.4442772 L103.956978,38.3205383 C103.956978,38.3205383 104.651567,39.8012276 104.106045,41.0324703 C104.106045,41.0324703 104.039441,38.3749049 103.646158,38.4356675 C103.566867,38.4356675 102.590002,38.9505508 102.590002,38.9505508 C102.590002,38.9505508 103.78571,41.5313635 102.881792,43.4054109 C102.881792,43.4054109 103.224329,40.226566 102.215748,39.1360367 L100.782167,39.9803175 C100.782167,39.9803175 102.18086,42.644279 101.23254,44.8189415 C101.23254,44.8189415 101.476756,41.483393 100.480861,40.1849916 L99.1804889,41.2083621 C99.1804889,41.2083621 100.496719,43.8339473 99.6942945,45.6376379 C99.6942945,45.6376379 99.5896304,41.7552258 98.9013846,41.4610068 C98.9013846,41.4610068 97.762766,42.4715852 97.5914975,42.8873295 C97.5914975,42.8873295 98.4922431,44.8061493 97.9308629,45.8007376 C97.9308629,45.8007376 97.5914975,43.2135289 97.296535,43.2007367 C97.296535,43.2007367 96.1642596,44.9148825 96.046909,46.0789665 C96.1017462,44.9937175 96.437443,43.9418615 97.0206023,43.028043 C96.3680294,43.152535 95.7659657,43.4671905 95.2888871,43.9330863 C95.2888871,43.9330863 95.4633273,42.7210318 97.3028783,42.6154967 C97.3028783,42.6154967 98.2385119,41.3138972 98.4890715,41.2371444 C98.4890715,41.2371444 96.6590354,41.0804408 95.5521332,41.5761359 C95.5521332,41.5761359 96.5289982,40.4344381 98.8220936,40.9365293 L100.090749,39.8811784 C100.090749,39.8811784 97.6866467,39.5613751 96.6653787,39.9163568 C96.6653787,39.9163568 97.842057,38.9057784 100.436458,39.641326 L101.835151,38.8002433 C101.835151,38.8002433 99.7831005,38.3557167 98.5620192,38.5156183 C98.5620192,38.5156183 99.8497049,37.8152491 102.244293,38.5731829 L103.240188,38.1222603 C103.240188,38.1222603 101.740002,37.8248432 101.299144,37.7768727 C100.858286,37.7289022 100.836085,37.6073769 100.836085,37.6073769 C101.788255,37.4496976 102.765119,37.560371 103.658844,37.9271802 C103.658844,37.9271802 105.799701,37.1500582 105.75847,37.0157408 Z" id="Path" fill="#1ECCC1" fill-rule="nonzero"></path>
                <path d="M284.774002,73.0157408 C284.774002,73.0157408 272.704371,72.2833913 274.114612,80.8093474 C274.114612,80.8093474 273.831929,82.3156209 275.188174,83 C275.188174,83 275.210408,82.3603934 276.426899,82.5810577 C276.861192,82.6543922 277.302563,82.6758609 277.741854,82.6450183 C278.328609,82.6014934 278.885671,82.3681637 279.329963,81.9798275 L279.329963,81.9798275 C279.329963,81.9798275 282.728517,80.5662968 284.046648,74.9761351 C284.046648,74.9761351 285.024923,73.7576845 284.999513,73.4442772 L282.960381,74.3205383 C282.960381,74.3205383 283.655973,75.8012276 283.109663,77.0324703 C283.109663,77.0324703 283.042963,74.3749049 282.652288,74.4356675 C282.572882,74.4356675 281.591431,74.9505508 281.591431,74.9505508 C281.591431,74.9505508 282.788865,77.5313635 281.886819,79.4054109 C281.886819,79.4054109 282.229851,76.226566 281.216637,75.1360367 L279.780986,75.9803175 C279.780986,75.9803175 281.181699,78.644279 280.232009,80.8189415 C280.232009,80.8189415 280.476578,77.483393 279.479245,76.1849916 L278.180172,77.2083621 C278.180172,77.2083621 279.495127,79.8339473 278.691543,81.6376379 C278.691543,81.6376379 278.586728,77.7552258 277.897489,77.4610068 C277.897489,77.4610068 276.760402,78.4715852 276.58571,78.8873295 C276.58571,78.8873295 277.487756,80.8061493 276.928742,81.8007376 C276.928742,81.8007376 276.58571,79.2135289 276.293498,79.2007367 C276.293498,79.2007367 275.159588,80.9148825 275.042068,82.0789665 C275.097055,80.9932587 275.43441,79.9411567 276.020343,79.028043 C275.366003,79.1528386 274.762133,79.4674073 274.282952,79.9330863 C274.282952,79.9330863 274.46082,78.7210318 276.299851,78.6154967 C276.299851,78.6154967 277.236835,77.3138972 277.487756,77.2339464 C277.487756,77.2339464 275.658254,77.0804408 274.546578,77.5761359 C274.546578,77.5761359 275.524853,76.4344381 277.821259,76.9365293 L279.091747,75.8811784 C279.091747,75.8811784 276.680997,75.5613751 275.661431,75.9163568 C275.661431,75.9163568 276.836632,74.9057784 279.437955,75.641326 L280.835491,74.8002433 C280.835491,74.8002433 278.780477,74.3557167 277.557633,74.5156183 C277.557633,74.5156183 278.847178,73.8152491 281.245223,74.5731829 L282.245732,74.1222603 C282.245732,74.1222603 280.740204,73.8248432 280.29871,73.7768727 C279.857215,73.7289022 279.834982,73.6073769 279.834982,73.6073769 C280.788474,73.4476709 281.767299,73.5584065 282.661817,73.9271802 C282.661817,73.9271802 284.812117,73.1500582 284.774002,73.0157408 Z" id="Path" fill="#1ECCC1" fill-rule="nonzero" opacity="0.1"></path>
                <path d="M126,92.0066956 C126,92.0066956 120.871566,79.5675576 114.343343,85.6983533 C114.343343,85.6983533 112.934262,86.2491104 113.002393,87.977473 C113.002393,87.977473 113.544347,87.6477434 113.931457,88.9811552 C114.076062,89.4525132 114.267304,89.902458 114.501283,90.3218138 C114.818142,90.8902678 115.284464,91.322681 115.829845,91.5537704 L115.829845,91.5537704 C115.829845,91.5537704 118.638716,94.1553728 123.993222,92.379906 C123.993222,92.379906 125.489015,92.6806483 125.733668,92.470491 L124.02419,90.9232985 C124.02419,90.9232985 123.095126,92.434257 121.80063,92.5683229 C121.80063,92.5683229 124.017997,91.035624 123.779537,90.6805306 C123.729987,90.6080626 122.850473,89.9087461 122.850473,89.9087461 C122.850473,89.9087461 121.236998,92.5284655 119.224026,92.6625313 C119.224026,92.6625313 122.073156,91.2494047 122.512913,89.6369909 L121.119317,88.6731661 C121.119317,88.6731661 119.530617,91.5429002 117.242023,91.7965383 C117.242023,91.7965383 120.177865,90.1986182 120.800338,88.4883726 L119.320029,87.7636923 C119.320029,87.7636923 117.725136,90.5247243 115.817458,90.7240114 C115.817458,90.7240114 119.050601,88.473879 118.970082,87.6223796 C118.970082,87.6223796 117.573389,87.0498821 117.139825,87.1042331 C117.139825,87.1042331 115.956817,89.0572467 114.84194,89.0572467 C114.84194,89.0572467 116.864203,87.2854032 116.740328,86.9991545 C116.740328,86.9991545 114.752131,86.8179844 113.705385,87.3614947 C114.648612,86.8129769 115.698193,86.5631239 116.749619,86.6368143 C116.33249,86.0548535 115.77928,85.6279605 115.157822,85.4084812 C115.157822,85.4084812 116.266505,84.9156985 117.229635,86.687542 C117.229635,86.687542 118.778075,86.9013227 118.960791,87.1078566 C118.960791,87.1078566 118.220637,85.2019473 117.276088,84.3721883 C117.276088,84.3721883 118.706847,84.7091646 119.360289,87.2709096 L120.862276,87.9666027 C120.862276,87.9666027 119.998246,85.3867407 119.202348,84.5714754 C119.202348,84.5714754 120.614525,85.1838303 121.230804,88.1948771 L122.605819,89.1224679 C122.605819,89.1224679 122.008121,86.8288546 121.289645,85.7019767 C121.289645,85.7019767 122.494332,86.6005803 122.992929,89.4050932 L123.850765,90.151514 C123.850765,90.151514 123.386233,88.4883726 123.231389,88.0245772 C123.076545,87.5607818 123.153967,87.4665733 123.153967,87.4665733 C123.743096,88.3268566 124.116225,89.3618224 124.231681,90.4558797 C124.231681,90.4558797 125.888512,92.1153977 126,92.0066956 Z" id="Path" fill="#1ECCC1" fill-rule="nonzero" opacity="0.1"></path>
                <path d="M255,56.0053588 C255,56.0053588 249.874582,43.5682977 243.343159,49.6980697 C243.343159,49.6980697 241.937153,50.2487348 242.002189,51.9768088 C242.002189,51.9768088 242.547248,51.6507571 242.931267,52.9803235 C243.07561,53.4535328 243.267962,53.9047762 243.504199,54.3243811 C243.819924,54.8916731 244.285326,55.3228913 244.829685,55.5525092 L244.829685,55.5525092 C244.829685,55.5525092 247.641696,58.1536772 252.99319,56.3821296 C252.99319,56.3821296 254.489007,56.6791989 254.736761,56.4690767 L253.036547,54.9185198 C253.036547,54.9185198 252.107468,56.4328488 250.816049,56.5668923 C250.816049,56.5668923 253.030353,55.0308265 252.79189,54.6757924 C252.742339,54.6033364 251.862811,53.9041367 251.862811,53.9041367 C251.862811,53.9041367 250.252408,56.5234187 248.236307,56.6574622 C248.236307,56.6574622 251.088579,55.2445715 251.528342,53.6360497 L250.113046,52.6796314 C250.113046,52.6796314 248.527418,55.5452636 246.235691,55.8024821 C246.235691,55.8024821 249.171579,54.201206 249.797159,52.491246 L248.31373,51.7666866 C248.31373,51.7666866 246.718812,54.5308805 244.8142,54.7265115 C244.8142,54.7265115 248.044297,52.4767548 247.963777,51.6290204 C247.963777,51.6290204 246.570159,51.0529957 246.136589,51.1109604 C246.136589,51.1109604 244.953562,53.0600251 243.835571,53.0600251 C243.835571,53.0600251 245.860962,51.2884775 245.737085,51.0022765 C245.737085,51.0022765 243.748857,50.8211367 242.698998,51.3645562 C243.642192,50.815969 244.691827,50.5661489 245.743279,50.6399969 C245.327706,50.0577628 244.775363,49.6307864 244.154554,49.4118688 C244.154554,49.4118688 245.263255,48.9191684 246.2264,50.690716 C246.2264,50.690716 247.774864,50.9080838 247.957583,51.1145832 C247.957583,51.1145832 247.217417,49.2053694 246.269757,48.3757489 C246.269757,48.3757489 247.700538,48.7162918 248.35399,51.2921003 L249.859098,51.9876772 C249.859098,51.9876772 248.995054,49.4046232 248.199144,48.5894939 C248.199144,48.5894939 249.611343,49.2017466 250.224535,52.2122906 L251.602669,53.1397266 C251.602669,53.1397266 251.001865,50.8501191 250.283377,49.7198065 C250.283377,49.7198065 251.491179,50.6182601 251.986688,53.4223047 L252.844537,54.1686008 C252.844537,54.1686008 252.383095,52.5057372 252.225152,52.0420192 C252.067208,51.5783012 252.147728,51.4877313 252.147728,51.4877313 C252.735191,52.3486681 253.107171,53.3832321 253.222363,54.4765386 C253.222363,54.4765386 254.903995,56.1212883 255,56.0053588 Z" id="Path" fill="#1ECCC1" fill-rule="nonzero" opacity="0.1"></path>
                <path d="M274,114.007574 C274,114.007574 268.878243,101.568504 262.3422,107.697481 C262.3422,107.697481 260.937198,108.248074 261.002187,109.975924 C261.002187,109.975924 261.546857,109.649915 261.930602,110.979309 C262.073838,111.4523 262.265012,111.903482 262.50003,112.323192 C262.815529,112.89041 263.280599,113.321573 263.824569,113.551161 L263.824569,113.551161 C263.824569,113.551161 266.634573,116.155614 271.985339,114.380674 C271.985339,114.380674 273.476993,114.681327 273.72457,114.467609 L272.016286,112.920876 C272.016286,112.920876 271.087871,114.435008 269.794279,114.569034 C269.794279,114.569034 272.007002,113.033168 271.768709,112.67818 C271.719193,112.605733 270.840294,111.906624 270.840294,111.906624 C270.840294,111.906624 269.231041,114.525567 267.21638,114.663215 C267.21638,114.663215 270.066614,113.246885 270.506064,111.638572 L269.110347,110.675033 C269.110347,110.675033 267.525851,113.543916 265.23576,113.797479 C265.23576,113.797479 268.169552,112.19641 268.794685,110.486672 L267.312316,109.762207 C267.312316,109.762207 265.718536,112.52242 263.815285,112.721648 C263.815285,112.721648 267.04617,110.472183 266.965707,109.620936 C266.965707,109.620936 265.56999,109.044986 265.136729,109.102943 C265.136729,109.102943 263.954547,111.051755 262.837354,111.051755 C262.837354,111.051755 264.8613,109.280437 264.737511,108.994274 C264.737511,108.994274 262.750702,108.813157 261.701593,109.356506 C262.645321,108.808333 263.695122,108.558581 264.746795,108.632041 C264.330933,108.048974 263.777754,107.621934 263.15611,107.404072 C263.15611,107.404072 264.264019,106.907813 265.226476,108.682754 C265.226476,108.682754 266.773835,108.896471 266.956423,109.102943 C266.956423,109.102943 266.216786,107.1976 265.272897,106.364464 C265.272897,106.364464 266.702656,106.704963 267.355642,109.280437 L268.85658,109.975924 C268.85658,109.975924 267.993154,107.393205 267.197811,106.581804 C267.197811,106.581804 268.609002,107.190355 269.221756,110.204131 L270.598906,111.127824 C270.598906,111.127824 269.99853,108.838514 269.280556,107.708348 C269.280556,107.708348 270.487496,108.606685 270.985745,111.413988 L271.842982,112.138453 C271.842982,112.138453 271.378774,110.475805 271.224039,110.012147 C271.069303,109.54849 271.146671,109.457932 271.146671,109.457932 C271.735126,110.317774 272.107016,111.352692 272.220538,112.446351 C272.220538,112.446351 273.904064,114.116244 274,114.007574 Z" id="Path" fill="#1ECCC1" fill-rule="nonzero" opacity="0.1"></path>
                <ellipse id="Oval" fill="#1ECCC1" fill-rule="nonzero" opacity="0.1" cx="69" cy="265.5" rx="7" ry="1"></ellipse>
                <ellipse id="Oval" fill="#1ECCC1" fill-rule="nonzero" opacity="0.1" cx="17" cy="250.5" rx="7" ry="1"></ellipse>
                <ellipse id="Oval" fill="#1ECCC1" fill-rule="nonzero" opacity="0.1" cx="108" cy="275.5" rx="7" ry="1"></ellipse>
                <ellipse id="Oval" fill="#1ECCC1" fill-rule="nonzero" opacity="0.1" cx="308" cy="253.5" rx="7" ry="1"></ellipse>
                <ellipse id="Oval" fill="#1ECCC1" fill-rule="nonzero" opacity="0.1" cx="242" cy="249.5" rx="7" ry="1"></ellipse>
                <ellipse id="Oval" fill="#1ECCC1" fill-rule="nonzero" opacity="0.1" cx="200.5" cy="267.5" rx="9.5" ry="1.5"></ellipse>
                <path d="M205.813801,253 C205.813801,253 193.441667,260.034847 199.833609,268.321292 C199.833609,268.321292 200.434896,270.119566 202.1734,269.993687 C202.1734,269.993687 201.827006,269.295957 203.153759,268.738492 C203.625846,268.537651 204.074523,268.275656 204.490316,267.958041 C205.052168,267.530555 205.472065,266.913119 205.686354,266.199329 L205.686354,266.199329 C205.686354,266.199329 208.215681,262.473306 206.254962,255.578725 C206.254962,255.578725 206.509856,253.629396 206.287641,253.3129 L204.784424,255.582321 C204.784424,255.582321 206.336659,256.72962 206.516392,258.4164 C206.516392,258.4164 204.882459,255.585918 204.555673,255.898817 C204.48378,255.963555 203.8106,257.139626 203.8106,257.139626 C203.8106,257.139626 206.50332,259.150096 206.70266,261.76119 C206.70266,261.76119 205.186371,258.103501 203.549171,257.582001 L202.611294,259.423434 C202.611294,259.423434 205.552372,261.394342 205.879158,264.357897 C205.879158,264.357897 204.170065,260.599505 202.425026,259.840633 L201.735506,261.786365 C201.735506,261.786365 204.572012,263.77166 204.833441,266.238891 C204.833441,266.238891 202.460972,262.113651 201.608059,262.243127 C201.608059,262.243127 201.07213,264.070173 201.144023,264.634831 C201.144023,264.634831 203.147224,266.109416 203.18317,267.558824 C203.18317,267.558824 201.333559,264.987293 201.049255,265.15633 C201.049255,265.15633 200.931612,267.742248 201.50022,269.087357 C201.50022,269.087357 200.519861,267.1668 200.679986,265.15633 C200.106877,265.714115 199.694533,266.444223 199.493751,267.256714 C199.493751,267.256714 198.961089,265.836078 200.715932,264.526935 C200.715932,264.526935 200.882594,262.516465 201.085201,262.268303 C201.085201,262.268303 199.186572,263.289722 198.37941,264.541321 C198.37941,264.541321 198.676785,262.674713 201.251862,261.746803 L201.905435,259.775895 C201.905435,259.775895 199.330358,260.977142 198.536267,262.034527 C198.536267,262.034527 199.108143,260.182305 202.108043,259.293958 L202.996902,257.495684 C202.996902,257.495684 200.709397,258.34447 199.591787,259.293958 C199.591787,259.293958 200.457771,257.700688 203.271402,256.966992 L203.9936,255.834079 C203.9936,255.834079 202.333525,256.485054 201.869489,256.71883 C201.405452,256.952606 201.313952,256.837516 201.313952,256.837516 C202.162166,256.047884 203.19266,255.532479 204.290976,255.348545 C204.290976,255.348545 205.928176,253.122283 205.813801,253 Z" id="Path" fill="#1ECCC1" fill-rule="nonzero"></path>
                <path d="M243.136473,127.794864 C240.916384,121.775727 228.695711,121.210057 223.393297,122.744479 C219.625257,123.83856 211.681819,125.071518 207.43853,125.691384 L207.163565,125.430566 C207.713495,125.267978 207.727074,124.868283 207.659181,124.275515 C207.619662,123.49428 207.631001,122.711309 207.693128,121.93154 C210.293415,122.737705 212.608554,120.830685 212.608554,120.830685 L212.608554,120.830685 C215.663722,119.475787 214.842221,113.676821 215.426098,112.09159 C215.864005,110.906053 216.335859,103.921552 216.546326,100.439462 L216.590456,100.439462 L216.614219,99.2708623 C216.64477,98.7661626 216.658349,98.4714722 216.658349,98.4714722 C216.658349,98.4714722 216.957076,89.955935 217.540953,88.2318266 C218.084094,86.6465953 218.525396,78.6594685 218.593289,77.3926384 C218.593289,77.2842465 218.593289,77.2266633 218.593289,77.2266633 L218.549159,76.4882436 C218.57971,75.9496715 218.593289,75.3501289 218.589894,74.720101 C218.589894,71.8240054 218.287772,68.1759412 218.250431,67.5865603 C218.250431,67.5018791 218.250431,67.4002618 218.250431,67.2783209 C218.274193,66.041976 218.11804,59.8500897 212.839389,57.5095025 C210.894265,56.6423675 208.555364,55.6092573 206.291145,54.6032452 C205.707268,49.5731844 204.373178,44.5702216 204.488596,39.5029011 C204.488596,38.7407707 204.556488,37.9786403 204.63117,37.2198971 C204.63117,37.4400681 204.607408,37.6636264 204.604013,37.8973463 C204.604013,38.3884971 204.604013,38.883035 204.604013,39.3741857 C204.804296,33.0366479 207.204301,26.6652376 206.980255,20.4631896 C206.959887,21.0695066 206.915757,21.679211 206.858048,22.2889153 C206.97525,20.1911338 206.755211,18.0881548 206.206279,16.0597693 C206.002601,15.3450604 205.727636,14.6066407 205.140365,14.1290389 C204.585259,13.7443925 203.948635,13.492847 203.280107,13.3940065 C201.673775,12.9837329 200.041885,12.6804702 198.395233,12.4862245 C198.145011,11.7219728 197.773685,11.002663 197.295372,10.3556466 C193.853216,5.64059968 188.75448,1.2100815 182.725615,0.193907604 C179.700998,-0.314179344 176.221501,0.109226446 174.164354,2.26690235 C173.949524,2.45644888 173.747658,2.66013948 173.56011,2.87660669 C172.45346,4.1942455 171.978212,5.92512837 170.844405,7.23937994 C170.769723,7.32744835 170.684857,7.40874226 170.603386,7.49342341 C168.383297,9.47496251 164.924168,9.88820656 162.456271,11.6665109 C162.021417,11.9857449 161.6138,12.3403591 161.237598,12.726719 C160.243183,13.7100096 159.351473,14.7915798 158.576208,15.9547647 C157.466163,17.512898 156.325567,19.135389 155.972525,20.9949872 C155.263047,24.7209582 157.805626,28.2538561 158.27748,32.0035378 C159.329816,40.3937469 150.025131,47.8389143 151.786945,56.1173443 C152.257061,58.1511061 153.295195,60.010279 154.78101,61.4793552 C151.152149,64.7582096 148.063034,67.9388339 148.063034,67.9388339 L148.063034,68.1285197 L147.489342,68.1285197 L147.547051,68.805969 L147.489342,68.805969 L147.805042,72.4811312 L147.489342,77.8329804 C147.489342,77.8329804 147.489342,77.8905636 147.489342,77.9989555 L147.489342,78.0260535 L147.489342,78.171705 C147.489342,78.171705 147.489342,78.2292882 147.489342,78.3376801 L147.50971,78.3376801 C147.614943,80.2988957 148.032483,87.3511426 148.528099,88.8381437 C149.111976,90.5622521 149.407308,99.0777893 149.407308,99.0777893 C149.407308,99.0777893 150.052288,111.112675 150.642954,112.704681 C151.23362,114.296687 150.395146,120.078716 153.460498,121.443777 L153.460498,121.443777 C154.357253,122.130151 155.419015,122.569351 156.539429,122.717381 C156.383276,123.984211 156.48172,124.902155 156.98752,125.190071 C157.204016,125.317067 157.449337,125.387006 157.700393,125.393306 C157.492419,125.701084 157.307476,126.023748 157.147068,126.358671 C155.930372,126.231919 154.734859,125.950765 153.589494,125.522021 C150.296702,124.167123 139.369384,121.118601 136.195403,123.262728 C133.021423,125.406855 125.383503,127.351134 128.910525,135.981838 C132.437547,144.612542 134.080548,144.829325 134.080548,144.829325 C135.166206,145.615733 136.118587,146.570617 136.901487,147.657676 C137.960612,149.246294 147.828805,152.88081 150.296702,152.88081 C151.34566,152.864685 152.394557,152.916733 153.436736,153.036623 C153.436736,153.036623 150.758372,155.380598 151.114808,156.742271 C151.471244,158.103944 150.300096,169.004102 150.300096,169.004102 C150.300096,169.004102 153.015802,171.734223 154.176765,168.153903 L154.217501,168.208099 C154.434757,168.50279 155.6093,169.833978 157.819205,168.153903 C158.723637,167.469232 159.684327,166.861891 160.691063,166.338339 L171.390941,164.827628 C172.506481,164.758054 173.625025,164.750139 174.741442,164.803917 C176.438757,164.942794 178.105521,163.940169 179.154462,163.16449 C181.371157,164.004527 183.862816,164.92247 185.047542,165.257808 C187.450941,165.935257 198.497071,168.892323 201.080386,167.967605 C201.61737,167.754555 202.094841,167.415243 202.472185,166.978529 L204.936687,167.056436 L203.782512,167.286768 C203.782512,167.286768 206.029758,167.324028 209.084926,167.364675 L208.95593,167.439194 L212.788469,167.405322 C218.3964,167.456131 224.696836,167.473067 225.525126,167.286768 C226.821875,166.998852 233.560218,167.202087 235.546077,167.286768 L236.099402,167.286768 C236.099402,167.286768 243.503093,165.813316 240.447925,158.31734 C238.09884,152.559021 230.878459,150.885722 227.673927,150.425056 C228.576899,150.245532 229.35427,150.106655 229.870254,150.025361 C232.107316,149.686637 236.452444,147.654289 236.805486,146.959903 C237.158527,146.265518 240.800967,144.250106 241.741279,143.10183 C242.681592,141.953553 245.366746,133.814 243.136473,127.794864 Z M181.812459,144.63964 L181.449233,144.758193 L181.20482,144.839487 L180.736361,145.300153 C180.362951,145.049496 179.962385,144.785291 179.544845,144.514311 C180.28148,144.558346 181.038483,144.60238 181.812459,144.63964 Z" id="Shape" fill="url(#linearGradient-1)" fill-rule="nonzero"></path>
                <path d="M202,109.952583 C202,109.952583 206.85122,123.23486 209.609756,121.906633 C212.368293,120.578405 211.62,114.933437 212.146341,113.386051 C212.672683,111.838666 213.256098,100.103774 213.256098,100.103774 C213.256098,100.103774 213.522439,91.8023502 214.04878,90.1221421 C214.537073,88.5780773 214.933415,80.791342 215,79.5660519 C215,79.4597937 215,79.403344 215,79.403344 L214.476829,69.7736927 L211.515366,69 L204.647561,71.6564555 L203.696341,77.3445909 L203.325366,79.5660519 L203.166829,80.5124142 L202,109.952583 Z" id="Path" fill="#A77357" fill-rule="nonzero"></path>
                <path d="M203,106 C203,106 208.034483,110.602054 209.551724,111.006418 C211.068966,111.410783 212,115 212,115" id="Path" fill="#000000" fill-rule="nonzero" opacity="0.1"></path>
                <path d="M162,109.952583 C162,109.952583 157.14878,123.23486 154.390244,121.906633 C151.631707,120.578405 152.38,114.933437 151.853659,113.386051 C151.327317,111.838666 150.743902,100.103774 150.743902,100.103774 C150.743902,100.103774 150.477561,91.8023502 149.95122,90.1221421 C149.462927,88.5780773 149.066585,80.791342 149,79.5660519 C149,79.4597937 149,79.403344 149,79.403344 L149.526341,69.7736927 L152.487805,69 L159.35561,71.6564555 L160.306829,77.3445909 L160.677805,79.5660519 L160.836341,80.5124142 L162,109.952583 Z" id="Path" fill="#A77357" fill-rule="nonzero"></path>
                <rect id="Rectangle" fill="#3E373A" fill-rule="nonzero" x="185" y="36" width="11" height="19"></rect>
                <rect id="Rectangle" fill="#000000" fill-rule="nonzero" opacity="0.1" x="185" y="36" width="11" height="19"></rect>
                <path d="M160.808462,124.075693 C160.808462,124.075693 156.861298,128.412645 158.325841,129.200259 C159.790384,129.987874 169.264253,144.749735 169.264253,144.749735 C169.264253,144.749735 200.381565,148.579638 206.249884,142.833093 C212.118203,137.086548 211.999822,126.820514 211.999822,126.820514 C211.999822,126.820514 207.284873,127.83461 206.770761,127.283618 C206.256649,126.732625 203.432414,124.075693 203.432414,124.075693 C203.432414,124.075693 163.514315,121.655384 160.808462,124.075693 Z" id="Path" fill="#4B4B5B" fill-rule="nonzero"></path>
                <path d="M160.808462,124.075693 C160.808462,124.075693 156.861298,128.412645 158.325841,129.200259 C159.790384,129.987874 169.264253,144.749735 169.264253,144.749735 C169.264253,144.749735 200.381565,148.579638 206.249884,142.833093 C212.118203,137.086548 211.999822,126.820514 211.999822,126.820514 C211.999822,126.820514 207.284873,127.83461 206.770761,127.283618 C206.256649,126.732625 203.432414,124.075693 203.432414,124.075693 C203.432414,124.075693 163.514315,121.655384 160.808462,124.075693 Z" id="Path" fill="#000000" fill-rule="nonzero" opacity="0.02"></path>
                <path d="M215.990615,68.1766623 L205.889497,76.3063211 L202.835592,76.5298867 L201.714368,76.6111833 L182.882517,78 L163.353689,76.5637603 L160.447934,76.3503567 L156.74419,76.0793681 L149,68.6271809 C149,68.6271809 154.48154,62.7196288 159.282938,58.7327086 C161.175214,57.1575872 162.963112,55.8839407 164.266156,55.3826117 L164.488381,55.3047025 C165.307979,54.9831501 166.039716,54.469933 166.623084,53.8074903 C170.41437,49.8747679 173.919458,40.1699877 173.919458,40.1699877 C173.919458,40.1699877 190.643543,31.4780274 188.623319,42.8798739 C186.603095,54.2817204 196.141918,51.4634387 196.141918,51.4634387 L199.286733,52.9064531 L200.52917,53.4789166 L203.697554,54.9388678 L210.845779,58.2381544 C216.455266,60.8362578 215.990615,68.1766623 215.990615,68.1766623 Z" id="Path" fill="#A77357" fill-rule="nonzero"></path>
                <circle id="Oval" fill="#000000" fill-rule="nonzero" opacity="0.1" cx="183" cy="35" r="15"></circle>
                <path d="M215.679578,80 L149,80 C149,79.8900973 149,79.8317115 149,79.8317115 L149.551538,69.8717802 C149.551538,69.8717802 154.960594,63.8820836 159.698502,59.8397252 L201.562206,58.1224957 L203.509201,56 L210.562903,59.3451631 C216.101537,61.9759588 215.65632,69.4184316 215.65632,69.4184316 C215.65632,69.4184316 216.413854,78.0423583 215.679578,80 Z" id="Path" fill="#000000" fill-rule="nonzero" opacity="0.1"></path>
                <path d="M215.679578,78 L149,78 C149,77.8900973 149,77.8317115 149,77.8317115 L149.551538,67.8717802 C149.551538,67.8717802 154.960594,61.8820836 159.698502,57.8397252 L201.562206,56.1224957 L203.509201,54 L210.562903,57.3451631 C216.101537,59.9759588 215.65632,67.4184316 215.65632,67.4184316 C215.65632,67.4184316 216.413854,76.0423583 215.679578,78 Z" id="Path" fill="#9FA9AE" fill-rule="nonzero"></path>
                <path d="M170.230731,51.0826908 C170.230731,51.0826908 180.946328,65.315542 195.219123,50.7898483 C209.491918,36.2641546 196.799724,83.1895193 196.799724,83.1895193 L166,87 L170.230731,51.0826908 Z" id="Path" fill="#000000" fill-rule="nonzero" opacity="0.1"></path>
                <path d="M170.230731,51.0826908 C170.230731,51.0826908 180.946328,65.315542 195.219123,50.7898483 C209.491918,36.2641546 196.799724,83.1895193 196.799724,83.1895193 L166,87 L170.230731,51.0826908 Z" id="Path" fill="#9FA9AE" fill-rule="nonzero"></path>
                <path d="M200.419556,53.5592797 L201.572085,70.8766123 L202.807183,76.6388877 L203.749848,81.0453337 C203.749848,81.0453337 206.158116,114.941072 205.47004,116.635859 C204.781963,118.330646 205.814078,119.686475 205.958574,120.588102 C206.10307,121.489728 205.814078,123.753964 205.927611,124.770836 C206.041143,125.787708 205.927611,126.238521 203.292277,125.875837 C200.656943,125.513152 196.982613,124.882692 196.982613,124.882692 C196.982613,124.882692 187.693577,125.560606 184.483699,124.431878 C181.273821,123.30315 175.194663,123.299761 175.194663,123.299761 C175.194663,123.299761 166.019159,123.526862 163.039787,123.187905 C160.060414,122.848947 158.450315,126.80458 156.503057,125.672462 C154.5558,124.540345 158.794353,113.585242 160.170507,110.41938 C161.54666,107.253518 158.336782,99.2337867 158.336782,99.2337867 L162.465243,76.6693939 L163.383825,71.554527 L163.383825,55.4743889 L163.61089,55.3964287 C164.448341,55.0746659 165.196018,54.5611131 165.792094,53.8982371 L166.824209,70.0800624 L199.163816,71.2121801 L199.163816,53" id="Path" fill="#000000" fill-rule="nonzero" opacity="0.1"></path>
                <path d="M200.419556,53.5592797 L201.572085,70.8766123 L202.807183,76.6388877 L203.749848,81.0453337 C203.749848,81.0453337 206.158116,114.941072 205.47004,116.635859 C204.781963,118.330646 205.814078,119.686475 205.958574,120.588102 C206.10307,121.489728 205.814078,123.753964 205.927611,124.770836 C206.041143,125.787708 205.927611,126.238521 203.292277,125.875837 C200.656943,125.513152 196.982613,124.882692 196.982613,124.882692 C196.982613,124.882692 187.693577,125.560606 184.483699,124.431878 C181.273821,123.30315 175.194663,123.299761 175.194663,123.299761 C175.194663,123.299761 166.019159,123.526862 163.039787,123.187905 C160.060414,122.848947 158.450315,126.80458 156.503057,125.672462 C154.5558,124.540345 158.794353,113.585242 160.170507,110.41938 C161.54666,107.253518 158.336782,99.2337867 158.336782,99.2337867 L162.465243,76.6693939 L163.383825,71.554527 L163.383825,55.4743889 L163.61089,55.3964287 C164.448341,55.0746659 165.196018,54.5611131 165.792094,53.8982371 L166.824209,70.0800624 L199.163816,71.2121801 L199.163816,53" id="Path" fill="#9FA9AE" fill-rule="nonzero"></path>
                <path d="M205.347299,17.8563736 C205.153433,17.1530752 204.88474,16.4228563 204.326948,15.9517473 C203.794311,15.5733479 203.179106,15.3243448 202.53113,15.2248934 C200.979782,14.8212867 199.402555,14.5222316 197.810305,14.3297863 C197.582844,13.5825763 197.238559,12.8752015 196.789954,12.2333513 C193.456807,7.5761024 188.525109,3.18469357 182.722712,2.19199962 C179.685467,1.67041467 176.165255,2.1381586 174.219785,4.50716382 C173.151818,5.80944367 172.69266,7.53572162 171.614489,8.81444603 C169.536373,11.2978634 165.784882,11.6040843 163.165981,13.525536 C161.768099,14.5350552 160.754551,15.9988582 159.76481,17.4189153 C158.693441,18.9567496 157.591462,20.5585202 157.251345,22.3958453 C156.571111,26.0671303 159.023355,29.5667971 159.47571,33.2717329 C160.496062,41.5598861 151.516971,48.9125514 153.214155,57.0896575 C154.203896,61.8579535 158.656028,65.2162876 163.261213,66.9190101 C164.883572,67.5213566 166.73721,68.1203381 167.495671,69.6615375 C167.835788,70.3345503 167.893608,71.1118802 168.213318,71.7916231 C169.288088,74.0596764 172.821904,74.1471681 174.719757,72.4949216 C176.617611,70.842675 177.216217,68.170814 177.440694,65.6773014 C178.352208,54.7879536 173.94429,44.0298432 174.457867,33.1135748 C174.61092,29.8124468 175.549643,26.0671303 178.539272,24.5730418 C182.562857,22.5540033 187.402723,25.9190675 191.831047,25.2763403 C193.926588,30.3210363 194.371448,35.8886593 193.103085,41.1964591 C192.399043,44.1005096 191.181423,46.9170683 191.092993,49.9119755 C190.960347,54.4716375 193.446603,58.637587 195.596143,62.668934 C196.057375,63.4227881 196.365819,64.2582913 196.504256,65.1287959 C196.53809,66.0120278 196.371915,66.8915708 196.017888,67.7030701 C194.80367,70.9368968 192.708549,73.9385341 192.470467,77.3809948 C192.4007,77.7828424 192.492224,78.1957626 192.725555,78.5318468 C192.965189,78.7561534 193.274431,78.8937167 193.603057,78.9221942 C197.276321,79.5447311 200.453015,76.3243646 202.245432,73.0905379 C204.243827,69.5188045 205.408318,65.5495937 205.653405,61.4743362 C206.024132,54.6230654 203.541278,47.8828418 203.69433,41.0248409 C203.871191,33.227987 207.432217,25.3772922 205.347299,17.8563736 Z" id="Path" fill="#000000" fill-rule="nonzero" opacity="0.1"></path>
                <path d="M205.347299,17.8563736 C205.153433,17.1530752 204.88474,16.4228563 204.326948,15.9517473 C203.794311,15.5733479 203.179106,15.3243448 202.53113,15.2248934 C200.979782,14.8212867 199.402555,14.5222316 197.810305,14.3297863 C197.582844,13.5825763 197.238559,12.8752015 196.789954,12.2333513 C193.456807,7.5761024 188.525109,3.18469357 182.722712,2.19199962 C179.685467,1.67041467 176.165255,2.1381586 174.219785,4.50716382 C173.151818,5.80944367 172.69266,7.53572162 171.614489,8.81444603 C169.536373,11.2978634 165.784882,11.6040843 163.165981,13.525536 C161.768099,14.5350552 160.754551,15.9988582 159.76481,17.4189153 C158.693441,18.9567496 157.591462,20.5585202 157.251345,22.3958453 C156.571111,26.0671303 159.023355,29.5667971 159.47571,33.2717329 C160.496062,41.5598861 151.516971,48.9125514 153.214155,57.0896575 C154.203896,61.8579535 158.656028,65.2162876 163.261213,66.9190101 C164.883572,67.5213566 166.73721,68.1203381 167.495671,69.6615375 C167.835788,70.3345503 167.893608,71.1118802 168.213318,71.7916231 C169.288088,74.0596764 172.821904,74.1471681 174.719757,72.4949216 C176.617611,70.842675 177.216217,68.170814 177.440694,65.6773014 C178.352208,54.7879536 173.94429,44.0298432 174.457867,33.1135748 C174.61092,29.8124468 175.549643,26.0671303 178.539272,24.5730418 C182.562857,22.5540033 187.402723,25.9190675 191.831047,25.2763403 C193.926588,30.3210363 194.371448,35.8886593 193.103085,41.1964591 C192.399043,44.1005096 191.181423,46.9170683 191.092993,49.9119755 C190.960347,54.4716375 193.446603,58.637587 195.596143,62.668934 C196.057375,63.4227881 196.365819,64.2582913 196.504256,65.1287959 C196.53809,66.0120278 196.371915,66.8915708 196.017888,67.7030701 C194.80367,70.9368968 192.708549,73.9385341 192.470467,77.3809948 C192.4007,77.7828424 192.492224,78.1957626 192.725555,78.5318468 C192.965189,78.7561534 193.274431,78.8937167 193.603057,78.9221942 C197.276321,79.5447311 200.453015,76.3243646 202.245432,73.0905379 C204.243827,69.5188045 205.408318,65.5495937 205.653405,61.4743362 C206.024132,54.6230654 203.541278,47.8828418 203.69433,41.0248409 C203.871191,33.227987 207.432217,25.3772922 205.347299,17.8563736 Z" id="Path" fill="#3E373A" fill-rule="nonzero"></path>
                <polygon id="Path" fill="#C3C7D9" fill-rule="nonzero" points="198 165.611489 211 166 209.135367 157 199.176456 157.884092"></polygon>
                <path d="M238.802385,143.664078 C237.892699,144.774193 234.373203,146.7744 234.032497,147.441136 C233.691791,148.107871 229.490883,150.108079 227.330805,150.441447 C225.170727,150.774814 218.360009,152.221631 217.109617,152.998378 C216.21356,153.558436 209.021251,155.331953 204.295655,156.315388 C203.015688,156.611681 201.720236,156.839817 200.415011,156.998793 C198.370773,157.108804 176,149.664699 176,149.664699 L180.313341,145.330917 L180.551836,145.250909 C181.771564,144.847534 187.406846,142.984007 190.534529,142.097249 C194.057432,141.097145 198.145907,136.986719 198.145907,136.986719 C198.145907,136.986719 204.162779,134.986512 204.960032,134.763156 C205.757285,134.539799 202.915794,126.985683 202.915794,126.985683 C202.915794,126.985683 215.975065,125.212166 221.085659,123.708677 C226.196253,122.205188 238.008539,122.761912 240.16521,128.652523 C242.32188,134.543133 239.725699,142.553963 238.802385,143.664078 Z" id="Path" fill="#4B4B5B" fill-rule="nonzero"></path>
                <path d="M179,162.199444 C179,162.199444 176.376093,164.961843 173.74876,164.733945 C171.121427,164.506047 161.934326,165.424544 161.934326,165.424544 C160.269433,166.093984 158.710395,167.004819 157.30652,168.128242 C155.158753,169.834023 154.018072,168.473542 153.805693,168.18349 L153.768013,168.128242 C152.623907,171.757344 150,168.991492 150,168.991492 C150,168.991492 151.14068,157.941897 150.791283,156.560697 C150.441885,155.179498 153.048665,152.807288 153.048665,152.807288 L156.131585,152.016551 L163.941649,150 L175.132648,153.912247 L179,162.199444 Z" id="Path" fill="#3D4A51" fill-rule="nonzero"></path>
                <path d="M158,153 L155.354423,170.080808 L155.31131,170.022437 C154.00224,173.856681 151,170.934484 151,170.934484 C151,170.934484 152.305151,159.260288 151.905375,157.801013 C151.505599,156.341739 154.488242,153.835435 154.488242,153.835435 L158,153 Z" id="Path" fill="#000000" fill-rule="nonzero" opacity="0.1"></path>
                <path d="M175,107 C175,107 180.351515,109.25 185,107" id="Path" fill="#000000" fill-rule="nonzero" opacity="0.1"></path>
                <path d="M195,110 C195,110 197.255385,112.25 199,110" id="Path" fill="#000000" fill-rule="nonzero" opacity="0.1"></path>
                <path d="M195,113.804299 C195,113.804299 198.361963,114.594236 199,113" id="Path" fill="#000000" fill-rule="nonzero" opacity="0.1"></path>
                <path d="M192,120 C192,120 199.209962,119.571429 201,119" id="Path" fill="#000000" fill-rule="nonzero" opacity="0.1"></path>
                <path d="M168,119 C168,119 173.161006,120.045527 177,119.998457" id="Path" fill="#000000" fill-rule="nonzero" opacity="0.1"></path>
                <path d="M204.972178,155.359037 C203.752079,155.636439 202.51722,155.85003 201.273044,155.99887 C199.324421,156.101867 178,149.132379 178,149.132379 L182.111593,145.074907 L182.338932,145 C182.988473,145.44008 183.521096,145.817737 183.901077,146.104881 C185.690562,147.459452 187.41834,145.68977 188.067881,145.68977 C188.717422,145.68977 194.345692,150.162353 194.345692,150.162353 C194.345692,150.162353 199.542018,151.307808 200.409154,152.347145 C201.276291,153.386482 204.306399,153.180487 204.845517,153.907711 C205.007903,154.132433 205.027389,154.684873 204.972178,155.359037 Z" id="Path" fill="#000000" fill-rule="nonzero" opacity="0.1"></path>
                <path d="M161.674671,126.885405 C161.674671,126.885405 156.120033,127.190738 152.917018,125.900458 C149.714004,124.610177 139.071619,121.632355 135.981894,123.723725 C132.892169,125.815096 125.452799,127.663513 128.885826,135.983031 C132.318854,144.30255 133.922078,144.519238 133.922078,144.519238 C134.984271,145.281024 135.911565,146.201092 136.668499,147.244258 C137.698408,148.777492 147.310884,152.277337 149.714004,152.277337 C152.117123,152.277337 156.350046,152.277337 162.299482,156.217125 C168.248919,160.156912 173.628473,160.596855 173.628473,160.596855 C173.628473,160.596855 181.181133,163.551696 183.532757,164.208328 C185.88438,164.864959 196.629756,167.708172 199.149598,166.834853 C201.66944,165.961533 203.269231,160.485228 203.269231,160.485228 C203.269231,160.485228 204.412429,155.560493 203.839114,154.795518 C203.265798,154.030543 200.062784,154.247231 199.149598,153.15394 C198.236413,152.060649 192.740136,150.85573 192.740136,150.85573 C192.740136,150.85573 186.804432,146.147684 186.117826,146.147684 C185.431221,146.147684 183.60485,148.00595 181.713252,146.584344 C177.945191,143.915277 173.98639,141.50173 169.865875,139.361399 C165.519662,137.171534 161.674671,126.885405 161.674671,126.885405 Z" id="Path" fill="#4B4B5B" fill-rule="nonzero"></path>
                <path d="M150,130.140484 C152.162422,129.70712 154.407116,130.288838 156.069187,131.713329 C159.031573,134.136166 169,139 169,139" id="Path" fill="#000000" fill-rule="nonzero" opacity="0.1"></path>
                <path d="M219,130 C219,130 208.045358,131.696779 206,134" id="Path" fill="#000000" fill-rule="nonzero" opacity="0.1"></path>
                <path d="M235.105388,168.85022 L234.572657,168.85022 C232.658897,168.782819 226.174507,168.580617 224.925813,168.85022 C223.456561,169.187225 204,168.85022 204,168.85022 L207.803768,168.065 C207.803768,168.065 206.3922,163.151476 207.288003,162.7437 C207.288003,162.7437 202.198215,159.414097 206.035915,157.166278 C209.873615,154.918458 214.009915,155.865441 214.009915,155.865441 L223.643186,152.623458 L225.492476,152 C225.492476,152 236.350689,152.562797 239.289193,159.976894 C242.227697,167.390991 235.105388,168.85022 235.105388,168.85022 Z" id="Path" fill="#3D4A51" fill-rule="nonzero"></path>
                <path d="M233.912921,169 L233.359241,169 C236.642524,166.386186 244.069585,158.429029 222,152.62963 L223.922008,152 C223.922008,152 235.20719,152.568368 238.261242,160.055856 C241.315295,167.543343 233.912921,169 233.912921,169 Z" id="Path" fill="#000000" fill-rule="nonzero" opacity="0.1"></path>
                <circle id="Oval" fill="#4B4B5B" fill-rule="nonzero" cx="212.5" cy="159.5" r="1"></circle>
                <circle id="Oval" fill="#4B4B5B" fill-rule="nonzero" cx="210.5" cy="160.5" r="1"></circle>
                <g id="Group" opacity="0.1" transform="translate(153.000000, 21.000000)" fill="#000000" fill-rule="nonzero">
                    <path d="M40.5635669,12.9834706 C40.6944891,9.16610663 40.033966,5.3637852 38.6258599,1.829 C34.2373248,2.50229412 29.4301911,-0.978705882 25.4332484,1.10364706 C22.476051,2.64458824 21.547707,6.50735294 21.382293,9.912 C21.3417834,10.8108824 21.3350318,11.7097647 21.3519108,12.6086471 C21.3519108,12.2893529 21.3519108,11.9665882 21.382293,11.6472941 C21.5375796,8.24264706 22.4659236,4.37988235 25.4332484,2.83894118 C29.4301911,0.756588235 34.2305732,4.22717647 38.6258599,3.56429412 C39.8183749,6.55838737 40.4748237,9.74937901 40.5635669,12.9834706 Z" id="Path"></path>
                    <path d="M6.55579618,12.3483529 C6.61361524,11.5921162 6.59891598,10.8318654 6.51191083,10.0785882 C6.15407643,7.02447059 4.53031847,4.10570588 4.2366242,1.12794118 C3.85853503,4.72 6.08318471,8.16976471 6.51191083,11.8138824 C6.55579618,12.0012941 6.55579618,12.1678824 6.55579618,12.3483529 Z" id="Path"></path>
                    <path d="M24.3428662,43.4934118 C24.1335669,46.0685882 23.5428025,48.8207647 21.6422293,50.5282941 C19.7416561,52.2358235 16.2409554,52.1421176 15.1843312,49.8029412 C14.8467516,49.1088235 14.7961146,48.3001765 14.4686624,47.6060588 C13.7192357,46.0165294 11.876051,45.3987647 10.2657962,44.7775294 C5.69159236,43.0179412 1.27942675,39.5716471 0.297070064,34.6399412 C0.209313834,34.1931667 0.149551826,33.7410601 0.118152866,33.2864118 C0.0351347059,34.3195342 0.0953762789,35.3595437 0.297070064,36.3752353 C1.27942675,41.2930588 5.69834395,44.7532353 10.2657962,46.5128235 C11.876051,47.1340588 13.7192357,47.7518235 14.4686624,49.3413529 C14.806242,50.0354706 14.8636306,50.8371765 15.1843312,51.5382353 C16.247707,53.8774118 19.7551592,53.9676471 21.6422293,52.2635882 C23.5292994,50.5595294 24.1166879,47.8038824 24.3428662,45.2287059 C24.4456454,43.8732903 24.4805747,42.5133385 24.4475159,41.1542353 C24.4475159,41.9420588 24.4036306,42.7194706 24.3428662,43.4934118 Z" id="Path"></path>
                    <path d="M50.4175159,18.0713529 C50.4175159,18.5745882 50.4175159,19.0743529 50.4175159,19.5741176 C50.6065605,13.1188235 52.9088535,6.62882353 52.6826752,0.308882353 C52.5071338,6.15335294 50.5457962,12.1297059 50.4175159,18.0713529 Z" id="Path"></path>
                    <path d="M43.1730573,44.1840588 C43.256092,43.7722595 43.2822304,43.3504799 43.2507006,42.9311765 C43.114735,42.0329922 42.8084925,41.1710097 42.3493631,40.3941765 C40.3981529,36.5765294 38.1735032,32.6686471 37.9101911,28.4310588 C37.9101911,28.6115294 37.8865605,28.7781176 37.8831847,28.9724706 C37.7481529,33.6716471 40.2158599,37.9717059 42.3493631,42.1294706 C42.7119585,42.7734351 42.9889882,43.4644463 43.1730573,44.1840588 L43.1730573,44.1840588 Z" id="Path"></path>
                    <path d="M52.3585987,39.1621176 C52.1065916,43.3668096 50.9427753,47.4602732 48.9524204,51.1425882 C47.17,54.4778235 44.0203822,57.7991765 40.3711465,57.1571176 C40.0442016,57.12815 39.7367964,56.9848308 39.5001911,56.7510588 C39.431629,56.671571 39.3778495,56.5798137 39.3415287,56.4803529 C39.3010191,56.7510588 39.2672611,57.0252353 39.2470064,57.3028824 C39.1772083,57.716242 39.2681317,58.1412485 39.5001911,58.4863529 C39.7367964,58.7201249 40.0442016,58.8634441 40.3711465,58.8924118 C44.0203822,59.5344706 47.17,56.2131176 48.9524204,52.8778824 C50.9427753,49.1955673 52.1065916,45.1021037 52.3585987,40.8974118 C52.3991083,40.0852941 52.4024841,39.2766471 52.3788535,38.468 C52.3721019,38.7005294 52.3721019,38.9295882 52.3585987,39.1621176 Z" id="Path"></path>
                </g>
                <path d="M206,162.373153 C206,162.373153 213.834048,165.154432 219,159" id="Path" stroke="#000000" opacity="0.1"></path>
                <path d="M208,166 C208,166 215.476383,163.798839 225,165.927938" id="Path" stroke="#000000" opacity="0.1"></path>
                <path d="M161,166 C161,166 163.724419,160.276392 171,164.640716" id="Path" stroke="#000000" opacity="0.1"></path>
                <path d="M151,68.3635606 L156.984865,63.1594933 C156.984865,63.1594933 180.190586,61.6958493 181.150869,69.28403 C181.150869,69.28403 189.377523,60.2874986 206.67953,62.2910645 L214,67.8984471 L193.766423,76.4396226 L174.104283,83 L159.622263,76.7648768 L151,68.3635606 Z" id="Path" fill="#000000" fill-rule="nonzero" opacity="0.1"></path>
                <path d="M151,68.3635606 L156.984865,63.1594933 C156.984865,63.1594933 180.190586,61.6958493 181.150869,69.28403 C181.150869,69.28403 189.377523,60.2874986 206.67953,62.2910645 L214,67.8984471 L193.766423,76.4396226 L174.104283,83 L159.622263,76.7648768 L151,68.3635606 Z" id="Path" fill="#D5D6DB" fill-rule="nonzero"></path>
                <polygon id="Path" fill="#000000" fill-rule="nonzero" opacity="0.1" points="149 70 151.58615 101.59352 179 103 177.810966 71.5413941 177.787845 71.0118561"></polygon>
                <polygon id="Path" fill="#1ECCC1" fill-rule="nonzero" points="149 69 151.58615 100.59352 179 102 177.810966 70.5413941 177.787845 70.0118561"></polygon>
                <polygon id="Path" fill="#000000" fill-rule="nonzero" opacity="0.1" points="215 67 186 71.4429066 186 104 214.339523 99.816609"></polygon>
                <polygon id="Path" fill="#1ECCC1" fill-rule="nonzero" points="215 67 186 71.4429066 186 104 214.339523 99.816609"></polygon>
                <polygon id="Path" fill="#FFFFFF" fill-rule="nonzero" opacity="0.3" points="209 74 192 76.2133971 192.371243 83 208.988973 80.8727273"></polygon>
                <path d="M153.67938,117.382706 L155.271546,121.693494 C155.271546,121.693494 157.637823,123.734909 160.227206,122.714202 C162.816588,121.693494 165.074692,121.186543 166.200364,120.193054 C167.326035,119.199565 168.90468,114.208305 168.90468,114.208305 C168.90468,114.208305 170.483324,108.764532 172.058589,107.403588 C173.633853,106.042645 177.80526,87.2922469 172.058589,89.1261182 C166.311917,90.9599895 161.917403,107.971782 161.917403,107.971782 C161.917403,107.971782 160.903285,109.217045 159.439574,109.332726 C157.975862,109.448406 155.04506,109.104768 154.480534,110.353433 C153.916008,111.602099 151.989183,114.888777 153.67938,117.382706 Z" id="Path" fill="#A77357" fill-rule="nonzero"></path>
                <path d="M187,74.1141997 C183.813977,74.7906897 180.476141,74.006595 178,72 L179.293907,103.496847 C179.293907,103.496847 182.340502,106.603977 187,105.894741 L187,74.1141997 Z" id="Path" fill="#000000" fill-rule="nonzero" opacity="0.1"></path>
                <path d="M187,72.1141997 C183.813977,72.7906897 180.476141,72.006595 178,70 L179.293907,101.496847 C179.293907,101.496847 182.340502,104.603977 187,103.894741 L187,72.1141997 Z" id="Path" fill="#1ECCC1" fill-rule="nonzero"></path>
                <path d="M187,72.1141997 C183.813977,72.7906897 180.476141,72.006595 178,70 L179.293907,101.496847 C179.293907,101.496847 182.340502,104.603977 187,103.894741 L187,72.1141997 Z" id="Path" fill="#000000" fill-rule="nonzero" opacity="0.1"></path>
                <path d="M187,70 C187,70 198.104987,66.5625868 201,67.0467295" id="Path" fill="#000000" fill-rule="nonzero" opacity="0.1"></path>
                <path d="M174,66 C174,66 162.860914,64.6961215 161,65.066097" id="Path" fill="#000000" fill-rule="nonzero" opacity="0.1"></path>
                <path d="M194,68 C194,68 201.344686,66.4680865 204,67.1963733" id="Path" fill="#000000" fill-rule="nonzero" opacity="0.1"></path>
                <path d="M191,143 C192.14049,141.917073 193.354488,140.963779 194.627809,140.151256 C196.523876,138.996575 200,136 200,136" id="Path" fill="#000000" fill-rule="nonzero" opacity="0.1"></path>
                <path d="M161,106 C161,106 155.962069,110.602054 154.448276,111.006418 C152.934483,111.410783 152,115 152,115" id="Path" fill="#000000" fill-rule="nonzero" opacity="0.1"></path>
                <path d="M211.31751,117.372499 L209.741544,121.693494 C209.741544,121.693494 207.374212,123.734909 204.780293,122.714202 C202.186375,121.693494 199.934028,121.186543 198.804472,120.193054 C197.674917,119.199565 196.098951,114.208305 196.098951,114.208305 C196.098951,114.208305 194.522985,108.764532 192.943636,107.403588 C191.364288,106.042645 187.194403,87.2922469 192.943636,89.1261182 C198.69287,90.9599895 203.089342,107.971782 203.089342,107.971782 C203.089342,107.971782 204.103913,109.217045 205.568277,109.332726 C207.03264,109.448406 209.964749,109.104768 210.529527,110.353433 C211.094304,111.602099 213.008461,114.888777 211.31751,117.372499 Z" id="Path" fill="#A77357" fill-rule="nonzero"></path>
                <path d="M209,110 C209,110 212.012579,111.821958 211.99996,114" id="Path" fill="#000000" fill-rule="nonzero" opacity="0.1"></path>
                <circle id="Oval" fill="#A77357" fill-rule="nonzero" cx="183" cy="34" r="15"></circle>
                <path d="M172.443148,29.9477386 C174.267004,29.6418542 175.865402,28.5082826 177.608497,27.8569288 C181.508588,26.3922824 185.82258,27.3963029 189.769782,28.7170037 C191.284053,29.2244119 192.82188,29.7965957 194.410183,29.7965957 C195.998486,29.7965957 197.684375,29.1020582 198.495352,27.6374118 C199.242393,26.2915205 199.097695,24.5425815 198.468431,23.1283161 C197.839167,21.7140506 196.785907,20.5768804 195.722552,19.5044858 C192.222902,15.9706215 187.88199,12.6670701 183.080066,13.0269341 C181.148528,13.1744783 179.301117,13.9121995 177.524371,14.7290907 C175.287165,15.7601008 173.109475,16.9329422 171.002908,18.2413632 C169.384319,19.2453837 166.386061,20.5876764 165.453943,22.4229827 C163.333963,26.5578198 169.145401,30.5019291 172.443148,29.9477386 Z" id="Path" fill="#3E373A" fill-rule="nonzero"></path>
                <path d="M198.493517,26.1616442 C197.682618,27.786378 195.99689,28.5568292 194.408739,28.5568292 C192.820588,28.5568292 191.282908,27.946057 189.765416,27.3831885 C185.818592,25.9181337 181.508378,24.8003807 177.605295,26.4291065 C175.865731,27.151654 174.264122,28.425094 172.44044,28.744452 C169.782306,29.2394569 165.502374,26.4929781 165.038042,23 C164.516509,27.0358867 169.479481,30.4929371 172.44044,29.9420445 C174.264122,29.6027266 175.865731,28.3452545 177.605295,27.626699 C181.508378,25.9979732 185.818592,27.1157262 189.765416,28.580781 C191.282908,29.1436495 192.817223,29.7783735 194.408739,29.7544217 C196.000255,29.7304698 197.682618,28.9879625 198.493517,27.3592367 C198.913847,26.473189 199.079224,25.4487086 198.964579,24.441103 C198.912085,25.0477373 198.751517,25.6342076 198.493517,26.1616442 L198.493517,26.1616442 Z" id="Path" fill="#000000" fill-rule="nonzero" opacity="0.1"></path>
                <path d="M321.959404,209 C321.959404,209 323.761589,211.724922 321.126691,215.842192 C318.491792,219.959462 316.321876,223.433299 317.197136,226 C317.197136,226 321.172277,218.356153 324.405878,218.247156 C327.639479,218.138159 325.51211,213.59545 321.959404,209 Z" id="Path" fill="#1ECCC1" fill-rule="nonzero"></path>
                <path d="M321.912661,209 C322.071415,209.262992 322.196662,209.550428 322.284646,209.853689 C325.475724,214.139698 327.178861,218.141145 324.10768,218.239512 C321.248622,218.334367 317.820826,224.176689 317,225.648688 C317.026256,225.767652 317.058068,225.884924 317.095302,226 C317.095302,226 321.116429,218.362472 324.387437,218.253565 C327.658445,218.144658 325.506466,213.591651 321.912661,209 Z" id="Path" fill="#000000" fill-rule="nonzero" opacity="0.1"></path>
                <path d="M325,213.260981 C325,213.669386 324.773723,214 324.50365,214 C324.233577,214 324,213.669386 324,213.260981 C324,212.852576 324.277372,213.045558 324.554745,213.045558 C324.832117,213.045558 325,212.852576 325,213.260981 Z" id="Path" fill="#FFD037" fill-rule="nonzero"></path>
                <path d="M326.762512,213.511825 C326.372482,213.857671 326.031409,214.067838 326.002035,213.980047 C325.97266,213.892255 326.264775,213.538429 326.654805,213.181942 C327.044835,212.825455 326.891434,213.086169 326.920809,213.181942 C326.950184,213.277714 327.154174,213.163319 326.762512,213.511825 Z" id="Path" fill="#FFD037" fill-rule="nonzero"></path>
                <path d="M312.042205,209 C312.042205,209 310.239935,211.724922 312.874957,215.842192 C315.509979,219.959462 317.679997,223.433299 316.801656,226 C316.801656,226 312.829368,218.356153 309.592576,218.247156 C306.355785,218.138159 308.49845,213.59545 312.042205,209 Z" id="Path" fill="#1ECCC1" fill-rule="nonzero"></path>
                <path d="M312.088123,209 C311.929394,209.262992 311.804167,209.550428 311.716197,209.853689 C308.525628,214.139698 306.822762,218.141145 309.893454,218.239512 C312.748982,218.334367 316.179305,224.176689 317,225.648688 C316.974227,225.768207 316.941364,225.885583 316.90164,226 C316.90164,226 312.884228,218.362472 309.610668,218.253565 C306.337107,218.144658 308.504112,213.591651 312.088123,209 Z" id="Path" fill="#000000" fill-rule="nonzero" opacity="0.1"></path>
                <path d="M307,213.260981 C307,213.669386 307.218978,214 307.49635,214 C307.773723,214 308,213.669386 308,213.260981 C308,212.852576 307.715328,213.045558 307.445255,213.045558 C307.175182,213.045558 307,212.852576 307,213.260981 Z" id="Path" fill="#FFD037" fill-rule="nonzero"></path>
                <path d="M306.237488,213.511825 C306.627518,213.857671 306.968591,214.067838 306.997965,213.980047 C307.02734,213.892255 306.735225,213.538429 306.345195,213.181942 C305.955165,212.825455 306.108566,213.086169 306.079191,213.181942 C306.049816,213.277714 305.845826,213.163319 306.237488,213.511825 Z" id="Path" fill="#FFD037" fill-rule="nonzero"></path>
                <ellipse id="Oval" fill="#1ECCC1" fill-rule="nonzero" opacity="0.1" cx="316.5" cy="242.5" rx="21.5" ry="3.5"></ellipse>
                <path d="M326.995461,223.183559 L326.892103,223.974778 L326.747401,225.092947 L326.688831,225.560486 L326.544129,226.678655 L326.482114,227.146193 L326.340857,228.261093 L324.704345,240.979449 C324.559643,242.113965 322.606165,243 320.246143,243 L311.75351,243 C309.393488,243 307.443455,242.113965 307.295308,240.979449 L305.658796,228.261093 L305.514094,227.146193 L305.455524,226.678655 L305.310822,225.560486 L305.248807,225.092947 L305.10755,223.974778 L305.004192,223.183559 C304.92495,222.529659 305.979208,222 307.31598,222 L324.687119,222 C326.020445,222 327.078148,222.539468 326.995461,223.183559 Z" id="Path" fill="#65617D" fill-rule="nonzero"></path>
                <polygon id="Path" fill="#9D9CB5" fill-rule="nonzero" points="327 223 326.857346 224 305.146133 224 305 223"></polygon>
                <polygon id="Path" fill="#9D9CB5" fill-rule="nonzero" points="327 225 326.854633 226 305.148912 226 305 225"></polygon>
                <polygon id="Path" fill="#9D9CB5" fill-rule="nonzero" points="325 226 324.861978 227 305.134735 227 305 226"></polygon>
            </g>
        </g>
    </g>
</svg>